<?xml version="1.0" encoding="UTF-8"?>
<svg version="1.1" xmlns="http://www.w3.org/2000/svg" width="100" height="100">
<path d="M0 0 C33 0 66 0 100 0 C100 33 100 66 100 100 C67 100 34 100 0 100 C0 67 0 34 0 0 Z " fill="#FEFEFC" transform="translate(0,0)"/>
<path d="M0 0 C1.21042969 -0.00128906 2.42085937 -0.00257813 3.66796875 -0.00390625 C4.94285156 -0.00003906 6.21773437 0.00382813 7.53125 0.0078125 C8.80613281 0.00394531 10.08101562 0.00007812 11.39453125 -0.00390625 C12.60496094 -0.00261719 13.81539062 -0.00132812 15.0625 0 C16.18205078 0.00112793 17.30160156 0.00225586 18.45507812 0.00341797 C21.03125 0.1328125 21.03125 0.1328125 22.03125 1.1328125 C22.13698328 3.73893331 22.17803075 6.3186902 22.17651367 8.92553711 C22.17987228 9.74177048 22.1832309 10.55800385 22.18669128 11.39897156 C22.19623033 14.11104838 22.19814587 16.82306367 22.19921875 19.53515625 C22.20242926 21.4122368 22.20579317 23.28931709 22.20930481 25.16639709 C22.21530347 29.10662415 22.21714395 33.04682925 22.21655273 36.98706055 C22.21645107 42.04597883 22.23010482 47.1047569 22.24732494 52.16364193 C22.25842161 56.0420039 22.26047266 59.92033173 22.25994301 63.79870796 C22.2611266 65.66429694 22.26556943 67.52988669 22.27327538 69.39546013 C22.28302844 72.0006389 22.28021592 74.60551006 22.27416992 77.21069336 C22.27978943 77.9873938 22.28540894 78.76409424 22.29119873 79.56433105 C22.25956551 84.90449699 22.25956551 84.90449699 20.03125 87.1328125 C17.56433105 87.38677979 17.56433105 87.38677979 14.41992188 87.39160156 C13.24530396 87.39790588 12.07068604 87.40421021 10.86047363 87.41070557 C9.58651733 87.4066571 8.31256104 87.40260864 7 87.3984375 C5.69800659 87.40035095 4.39601318 87.4022644 3.05456543 87.40423584 C0.29723372 87.40718641 -2.45996849 87.40289174 -5.21728516 87.39355469 C-8.75502073 87.38216003 -12.29245287 87.38871988 -15.83017731 87.40069962 C-19.19930934 87.40965644 -22.56835934 87.4033889 -25.9375 87.3984375 C-27.2114563 87.40248596 -28.4854126 87.40653442 -29.79797363 87.41070557 C-30.97259155 87.40440125 -32.14720947 87.39809692 -33.35742188 87.39160156 C-34.91390442 87.38921478 -34.91390442 87.38921478 -36.50183105 87.38677979 C-38.96875 87.1328125 -38.96875 87.1328125 -40.96875 85.1328125 C-41.21598816 83.2665863 -41.21598816 83.2665863 -41.21166992 80.97436523 C-41.21474655 80.11685165 -41.21782318 79.25933807 -41.22099304 78.37583923 C-41.21380753 77.44872635 -41.20662201 76.52161346 -41.19921875 75.56640625 C-41.19876053 74.61717789 -41.19830231 73.66794952 -41.1978302 72.68995667 C-41.19480638 70.68171947 -41.18691624 68.67348466 -41.17456055 66.6652832 C-41.15630439 63.57950601 -41.15405082 60.49402867 -41.15429688 57.40820312 C-41.14938183 55.46093489 -41.14355357 53.5136687 -41.13671875 51.56640625 C-41.13560593 50.63726913 -41.1344931 49.70813202 -41.13334656 48.75083923 C-41.12696671 47.89647781 -41.12058685 47.04211639 -41.11401367 46.16186523 C-41.11020187 45.40622787 -41.10639008 44.65059052 -41.10246277 43.87205505 C-40.96875 42.1328125 -40.96875 42.1328125 -39.96875 41.1328125 C-37.27220146 41.05961629 -34.60183542 41.04038713 -31.90625 41.0703125 C-30.76833008 41.07708008 -30.76833008 41.07708008 -29.60742188 41.08398438 C-27.72783129 41.0958057 -25.84828101 41.11374172 -23.96875 41.1328125 C-23.97922363 40.56771973 -23.98969727 40.00262695 -24.00048828 39.42041016 C-24.04199788 36.86625597 -24.0680596 34.31217268 -24.09375 31.7578125 C-24.11050781 30.86835937 -24.12726562 29.97890625 -24.14453125 29.0625 C-24.15097656 28.21171875 -24.15742187 27.3609375 -24.1640625 26.484375 C-24.17453613 25.69885254 -24.18500977 24.91333008 -24.19580078 24.10400391 C-23.96875 22.1328125 -23.96875 22.1328125 -21.96875 20.1328125 C-19.38810871 19.98783265 -16.91931116 19.94603705 -14.34375 20.0078125 C-13.28414062 20.02134766 -13.28414062 20.02134766 -12.203125 20.03515625 C-10.45818902 20.05873647 -8.71342705 20.09460789 -6.96875 20.1328125 C-6.97398682 19.56248291 -6.97922363 18.99215332 -6.98461914 18.40454102 C-7.00533221 15.83480927 -7.0183919 13.26509503 -7.03125 10.6953125 C-7.03962891 9.79748047 -7.04800781 8.89964844 -7.05664062 7.97460938 C-7.05986328 7.12060547 -7.06308594 6.26660156 -7.06640625 5.38671875 C-7.07164307 4.59595947 -7.07687988 3.8052002 -7.08227539 2.99047852 C-6.82880023 -1.15724723 -3.39976454 0.00342521 0 0 Z " fill="#F5DC6C" transform="translate(58.96875,6.8671875)"/>
<path d="M0 0 C1.21042969 -0.00128906 2.42085937 -0.00257813 3.66796875 -0.00390625 C4.94285156 -0.00003906 6.21773437 0.00382813 7.53125 0.0078125 C9.44357422 0.00201172 9.44357422 0.00201172 11.39453125 -0.00390625 C13.21017578 -0.00197266 13.21017578 -0.00197266 15.0625 0 C16.18205078 0.00112793 17.30160156 0.00225586 18.45507812 0.00341797 C21.03125 0.1328125 21.03125 0.1328125 22.03125 1.1328125 C22.13698328 3.73893331 22.17803075 6.3186902 22.17651367 8.92553711 C22.17987228 9.74177048 22.1832309 10.55800385 22.18669128 11.39897156 C22.19623033 14.11104838 22.19814587 16.82306367 22.19921875 19.53515625 C22.20242926 21.4122368 22.20579317 23.28931709 22.20930481 25.16639709 C22.21530347 29.10662415 22.21714395 33.04682925 22.21655273 36.98706055 C22.21645107 42.04597883 22.23010482 47.1047569 22.24732494 52.16364193 C22.25842161 56.0420039 22.26047266 59.92033173 22.25994301 63.79870796 C22.2611266 65.66429694 22.26556943 67.52988669 22.27327538 69.39546013 C22.28302844 72.0006389 22.28021592 74.60551006 22.27416992 77.21069336 C22.27978943 77.9873938 22.28540894 78.76409424 22.29119873 79.56433105 C22.25956551 84.90449699 22.25956551 84.90449699 20.03125 87.1328125 C17.45021694 87.30784245 14.97816837 87.36443529 12.3984375 87.328125 C11.27068405 87.32388016 11.27068405 87.32388016 10.12014771 87.31954956 C7.71535422 87.30834124 5.31093119 87.28323602 2.90625 87.2578125 C1.27734912 87.24778352 -0.35155758 87.23865753 -1.98046875 87.23046875 C-5.97670556 87.20839985 -9.97266494 87.17386601 -13.96875 87.1328125 C-13.47375 86.1428125 -13.47375 86.1428125 -12.96875 85.1328125 C-12.81198225 82.43625804 -12.71038685 79.76151273 -12.65234375 77.0625 C-12.63156265 76.26627228 -12.61078156 75.47004456 -12.58937073 74.64968872 C-12.52390851 72.10248565 -12.46500585 69.55517825 -12.40625 67.0078125 C-12.3630616 65.28254123 -12.31944721 63.55728057 -12.27539062 61.83203125 C-12.16823055 57.59906565 -12.06695377 53.36599497 -11.96875 49.1328125 C-11.63875 49.1328125 -11.30875 49.1328125 -10.96875 49.1328125 C-10.96875 52.7628125 -10.96875 56.3928125 -10.96875 60.1328125 C-7.66875 60.1328125 -4.36875 60.1328125 -0.96875 60.1328125 C-0.96875 56.5028125 -0.96875 52.8728125 -0.96875 49.1328125 C2.99125 49.1328125 6.95125 49.1328125 11.03125 49.1328125 C11.03125 45.8328125 11.03125 42.5328125 11.03125 39.1328125 C9.05125 39.1328125 7.07125 39.1328125 5.03125 39.1328125 C4.97066406 37.91722656 4.91007812 36.70164063 4.84765625 35.44921875 C4.76326668 33.86457022 4.6786179 32.27993548 4.59375 30.6953125 C4.55443359 29.89287109 4.51511719 29.09042969 4.47460938 28.26367188 C4.6258204 24.38041689 4.6258204 24.38041689 3.03125 21.1328125 C1.34941052 20.89994242 -0.3399916 20.72017084 -2.03125 20.5703125 C-2.95035156 20.48652344 -3.86945312 20.40273438 -4.81640625 20.31640625 C-5.88181641 20.22552734 -5.88181641 20.22552734 -6.96875 20.1328125 C-6.99763514 16.98699827 -7.01550923 13.84121781 -7.03125 10.6953125 C-7.03962891 9.79748047 -7.04800781 8.89964844 -7.05664062 7.97460938 C-7.05986328 7.12060547 -7.06308594 6.26660156 -7.06640625 5.38671875 C-7.07164307 4.59595947 -7.07687988 3.8052002 -7.08227539 2.99047852 C-6.82880023 -1.15724723 -3.39976454 0.00342521 0 0 Z " fill="#D79611" transform="translate(58.96875,6.8671875)"/>
<path d="M0 0 C0.33 0 0.66 0 1 0 C1 3.63 1 7.26 1 11 C4.3 11 7.6 11 11 11 C11 7.37 11 3.74 11 0 C12.98 0 14.96 0 17 0 C17.04942899 4.92959122 17.08573318 9.85903825 17.10986328 14.78881836 C17.11992237 16.46592725 17.13357122 18.14301861 17.15087891 19.82006836 C17.17513152 22.23035002 17.1864839 24.64039986 17.1953125 27.05078125 C17.20563507 27.80087967 17.21595764 28.55097809 17.22659302 29.32380676 C17.227408 33.10300779 17.15057067 34.77414399 15 38 C12.04935852 38.2208564 9.31631769 38.28060989 6.375 38.1875 C5.57320312 38.17396484 4.77140625 38.16042969 3.9453125 38.14648438 C1.96325622 38.11109051 -0.01845551 38.05728234 -2 38 C-1.67 37.34 -1.34 36.68 -1 36 C-0.84323225 33.30344554 -0.74163685 30.62870023 -0.68359375 27.9296875 C-0.66281265 27.13345978 -0.64203156 26.33723206 -0.62062073 25.51687622 C-0.55515851 22.96967315 -0.49625585 20.42236575 -0.4375 17.875 C-0.3943116 16.14972873 -0.35069721 14.42446807 -0.30664062 12.69921875 C-0.19948055 8.46625315 -0.09820377 4.23318247 0 0 Z " fill="#E9B623" transform="translate(47,56)"/>
<path d="M0 0 C2.97 0 5.94 0 9 0 C9 3.63 9 7.26 9 11 C12.96 11 16.92 11 21 11 C21 14.3 21 17.6 21 21 C17.04 21 13.08 21 9 21 C9 24.3 9 27.6 9 31 C6.03 31 3.06 31 0 31 C0 27.37 0 23.74 0 20 C-3.96 20 -7.92 20 -12 20 C-12 17.03 -12 14.06 -12 11 C-8.04 11 -4.08 11 0 11 C0 7.37 0 3.74 0 0 Z " fill="#FDFDFA" transform="translate(49,35)"/>
<path d="M0 0 C1.11246094 -0.00257812 2.22492187 -0.00515625 3.37109375 -0.0078125 C4.53769531 -0.00007813 5.70429687 0.00765625 6.90625 0.015625 C8.07285156 0.00789063 9.23945312 0.00015625 10.44140625 -0.0078125 C11.55386719 -0.00523438 12.66632812 -0.00265625 13.8125 0 C14.83666016 0.00225586 15.86082031 0.00451172 16.91601562 0.00683594 C19.40625 0.265625 19.40625 0.265625 21.40625 2.265625 C21.55142744 5.1749808 21.59255796 7.985571 21.53125 10.890625 C21.52222656 11.69242188 21.51320313 12.49421875 21.50390625 13.3203125 C21.48031223 15.30221023 21.44444065 17.28395481 21.40625 19.265625 C19.42625 19.265625 17.44625 19.265625 15.40625 19.265625 C15.40625 15.635625 15.40625 12.005625 15.40625 8.265625 C12.43625 8.265625 9.46625 8.265625 6.40625 8.265625 C6.40625 11.895625 6.40625 15.525625 6.40625 19.265625 C2.44625 19.265625 -1.51375 19.265625 -5.59375 19.265625 C-5.59375 19.925625 -5.59375 20.585625 -5.59375 21.265625 C-6.25375 21.265625 -6.91375 21.265625 -7.59375 21.265625 C-7.65166844 18.14070249 -7.68731746 15.01591734 -7.71875 11.890625 C-7.73550781 11.00117187 -7.75226562 10.11171875 -7.76953125 9.1953125 C-7.77597656 8.34453125 -7.78242187 7.49375 -7.7890625 6.6171875 C-7.79953613 5.83166504 -7.81000977 5.04614258 -7.82080078 4.23681641 C-7.27954564 -0.46220942 -3.87231129 0.00852932 0 0 Z " fill="#F1CD4C" transform="translate(42.59375,26.734375)"/>
</svg>
